# xmcd
#
# Track frame offsets: 
#        150
#        23002
#        43882
#        66845
#        89523
#        112845
#        132722
#        150008
#        168847
#        185913
#        201583
#
# Disc length: 2959 seconds
#
# Revision: 1
# Processed by: cddbd v1.5.2PL0 Copyright (c) Steve Scherf et al.
# Submitted via: ExactAudioCopyFreeDBPlugin 1.0
#
DISCID=960b8d0b
DTITLE=群星 - DTS51爱浪音响试音碟
DYEAR=2010
DGENRE=DTS
TTITLE0=爱浪试音碟 - 再回首
TTITLE1=爱浪试音碟 - 让我们荡起双桨
TTITLE2=爱浪试音碟 - 瑶族舞曲
TTITLE3=爱浪试音碟 - 达兰（印度歌曲）
TTITLE4=爱浪试音碟 - 在雨中
TTITLE5=爱浪试音碟 - 三套车
TTITLE6=爱浪试音碟 - 哎哟妈妈
TTITLE7=爱浪试音碟 - 军港之夜
TTITLE8=爱浪试音碟 - 绿岛小夜曲
TTITLE9=爱浪试音碟 - 失忆周末
TTITLE10=爱浪试音碟 - 情深意长
EXTD=
EXTT0=
EXTT1=
EXTT2=
EXTT3=
EXTT4=
EXTT5=
EXTT6=
EXTT7=
EXTT8=
EXTT9=
EXTT10=
PLAYORDER=
